# xmcd
#
# Track frame offsets:
#	150
#	12141
#	24038
#	39725
#	59467
#	78709
#	94951
#	109611
#	128703
#	138801
#	158377
#	173494
#	185461
#	200781
#
# Disc length: 2899 seconds
#
# Revision: 0
# Processed by: cddbd v1.5.2PL0 Copyright (c) Steve Scherf et al.
# Submitted via: dBpowerAMP V4.0
#
DISCID=aa0b510e
DTITLE=Masters Voice - More Than Enough
DYEAR=1900
DGENRE=bluegrass gospel
TTITLE0=I'm lookinng for Jesus to come
TTITLE1=I won't walk
TTITLE2=He knows my nme
TTITLE3=Peace like a river
TTITLE4=Pry through me
TTITLE5=No back roads
TTITLE6=Jesus is more than enough
TTITLE7=Put that on my account
TTITLE8=I know that I know
TTITLE9=I'm going to a city
TTITLE10=There's something about that word grace
TTITLE11=I remember the day
TTITLE12=I'm under the blood
TTITLE13=God bless the USA
EXTD=
EXTT0=
EXTT1=
EXTT2=
EXTT3=
EXTT4=
EXTT5=
EXTT6=
EXTT7=
EXTT8=
EXTT9=
EXTT10=
EXTT11=
EXTT12=
EXTT13=
PLAYORDER=
